<svg id="图层_1" data-name="图层 1" xmlns="http://www.w3.org/2000/svg" viewBox="0 0 309.69 202.55"><defs><style>.cls-1{fill:#bbbbb9;}</style></defs><title>zhouyoulogo01</title><path class="cls-1" d="M152,16.25c10.24-4,19.77-9.18,30.91-11.55l13.84,1.45c1.19.82,2.36,1.66,3.57,2.46,9.07,6.08,9.14,8.87-.24,13.39-6.46,3.1-11.67,7.37-17.33,12.37-3-5.3-3.5-11.1-9.36-15.8,1.58,4.84,2.7,8.83,4.21,12.72,1.6,4.16-.46,5.82-4.88,6-3.57.18-7.18,0-10.75.21-5.29.25-10.43-1.46-16,.76s-12.34,2.34-18.58,3.38c-1.71.3-3.4,1.08-5.13-.06h0l1.11-2-.31.19Q137.67,27.86,152.29,16Z" transform="translate(0 0.01)"/><path class="cls-1" d="M123,82.82c.43,4.38.79,9,1,13.72.26,5.25.37,10.3.36,15.11,7.72.53,14.42.88,21.09,1.48,20.57,1.83,40.57,5.8,58.61,16.51,8,4.75,14.18,11.87,22.12,16.85,5.45,3.42,6.47,8.43,4.8,12.49-.82,2-1.58,2.76-4,1.63-38-17.62-78.51-23.46-119.7-26.46a363.63,363.63,0,0,0-82.28,3c-8.17,1.35-16.21,3.36-25,5.16,3.16-4.31,7.06-6.5,11.07-8.44,26.65-12.86,55-18.7,84.34-20.75,3.24-.23,11.41-32,11.41-32,.53-2,3.17-11.67,6.54-18.19,2.54-4.91,8.4-13.65,11.16-12.72C126.64,50.83,127.81,56.94,123,82.82Z" transform="translate(0 0.01)"/><path class="cls-1" d="M127.92,54.67c-.31,3-4.84,5.78-10.11,12.2-1.82,2.22-1.87,3.64-3.71,4.75s-4.15,1.33-6.89,1c-.15-3.14.62-6.18,1.43-10-3.63,3.44-2.36,9.21-6.55,10.84-3.77,1.46-8,1.59-12.52,2.39L92.3,65.66C89,68.91,88.36,72.05,87.41,75c-.69,2.17-1.37,3.17-4.13,3-5.35-.3-10.47,1.28-15.58,3.44,1.89-7.25,8.11-11,11.87-16.49.72-.41,2.28-1.29,4.28-2.33,16.18-8.39,40-16.36,43.64-10.62C128,52.85,128.18,52.06,127.92,54.67Z" transform="translate(0 0.01)"/><path class="cls-1" d="M114.49,37.25l4,7.34c-9,.63-17.52,1.07-26,2.91-3.91.84-6-4.39-8.72-7.11-1-.93.39-2.11,1.13-2.85,2.22-2.22,4.5-4.36,7.28-7A18.66,18.66,0,0,0,82.44,35c-2.06,1.59-3.6,1.42-5.51-.29-3.62-3.2-7.4-6.21-11.27-9-2.15-1.55-2.15-2.59,0-4.12l8.67-6.07a28.64,28.64,0,0,0-13,5.19c-1.63,1.08-2.77,1.77-4.38-.29C51.66,13.56,45,8.94,37.29,4.87,47.62.43,57.45,1.53,67,4.57c16.72,5.3,30.55,16.21,43.29,29,1.38,1.38,2.85,2.66,4.33,3.93Z" transform="translate(0 0.01)"/><path class="cls-1" d="M150.94,64.3c-3.08-6.28-8.69-9-13.8-12.39-3.68-2.41-7.84-3.93-11.61-5.77,21.42-10.56,72.68-4.67,82.54,19-8.31-.87-16.38-1.54-24.4.8-1.89.55-2.11-1.52-2.65-2.88a40.85,40.85,0,0,0-7.48-11.91c1.43,4.47,3.69,8.63,3.83,13.5a4,4,0,0,1-1.18.33c-5.72-.79-11.75,1.07-17.13-.18-6-1.4-4.67-11.06-9.77-14.56.88,3.14,1.86,6.37,2.65,9.64.37,1.53,1.2,3.45-1.13,4.25Z" transform="translate(0 0.01)"/><path class="cls-1" d="M55.17,172.49c0,6.83.06,13.65,0,20.48-.09,7.2-2.12,9.37-9.3,9.05-2.54-.12-7.52,2.48-7.17-2.86.23-3.37,4.27-1.08,6.52-1.18,3.89-.18,5.77-1.54,5.72-5.69-.14-12.32-.17-24.65,0-37,0-3.48-1.32-4.11-4.4-4.07-10.65.15-21.32.21-32,0-3.66-.08-4.9.88-4.85,4.71.1,9.31-.19,18.64-.52,27.95A32.38,32.38,0,0,1,4.32,200c-.5.8-.82,2.66-2.41,1.47-1-.73-2.48-1.85-1.68-3.27,8.42-15,4.07-31.31,5-47.06.19-3.2,1.35-3.82,4.2-3.8q20.73.16,41.46,0c3.21,0,4.39.83,4.27,4.2C55,158.49,55.17,165.49,55.17,172.49Z" transform="translate(0 0.01)"/><path class="cls-1" d="M72.58,67.67,72.42,63c-3.22,4.11-4.54,8.78-7.79,12.11-.91.94-1.34,2.22-3,2.11-7-.46-13.71,1-20.65,2.85,5.41-17.2,41.33-29.7,60.17-28.16C90.5,55.75,79.86,58.72,72.6,67.71Z" transform="translate(0 0.01)"/><path class="cls-1" d="M97.87,163.15h15.22c1.19,0,2.88-.69,3.37,1.16a4.14,4.14,0,0,1-.85,4.2c-1.87,1.89-3.73,3.79-5.6,5.7-.8.82-1.83,1.65-1.12,3,.58,1.09,1.74.72,2.69.75,1.66.06,3.33,0,5,.06,1.12,0,2,.43,1.94,1.71s-.82,1.69-1.94,1.76H116c-7.61,1.13-7.61,1.14-7.61,8.81,0,1.66.07,3.33,0,5-.28,5-6.72,8.47-11.08,5.95a2.53,2.53,0,0,1-1.15-2.56c0-1.52,1.2-1.45,2.13-1.24,6,1.4,6.84-2,6.43-6.74a11.59,11.59,0,0,1,0-3c.89-5.08-1.18-7.07-6.23-6.22a13.08,13.08,0,0,1-3-.07A1.52,1.52,0,0,1,94,180v-.1c-.09-1.23.6-2.21,1.67-1.85,7.47,2.48,9.51-4,13.19-7.81.68-.7,1.27-1.48,2.14-2.5a8.41,8.41,0,0,0-5.94-.52c-3.77,1-7.14-2.19-11-.63-.88.35-2.76-1.44-1.66-3.24a53,53,0,0,0,6.88-16.5,1.9,1.9,0,0,1,2-1.75,1.79,1.79,0,0,1,.51.11c1.63.33,1.75,1.57,1.24,2.67-2.79,6,.84,6.13,5.18,5.86,2.49-.16,5,0,7.49,0,1.19,0,2.41.11,2.44,1.76s-1.19,1.74-2.4,1.75c-3.66,0-7.34.28-11,0C100.69,156.87,98.53,158.47,97.87,163.15Z" transform="translate(0 0.01)"/><path class="cls-1" d="M83.33,156.15h7.49c1.14,0,2.44-.13,2.51,1.6s-1.08,2.2-2.58,2.19a33.64,33.64,0,0,1-4.49,0c-3.64-.52-5,.85-5,4.58-.08,3.42.75,4.7,4.37,4.6,6.5-.17,6.55,0,6.35,6.58-.18,6.15-.35,12.3-.77,18.44-.36,5.29-3.47,7.58-8.75,7.08-1.74-.17-2.9-.71-3-2.55-.13-2.34,1.77-1.63,2.84-1.57,4,.21,5.26-1.95,5.36-5.5.12-4.82.39-9.64.57-14.46.1-2.37.41-4.59-3.31-4.63-3.3,0-3.8,1.51-3.93,4.21-.38,8-1.59,15.92-5.94,22.93-.81,1.31-1.54,3.92-3.9,1.28-1-1.15-.67-2,0-3.08,7.18-10.66,5.83-22.9,6.42-34.78.1-1.94-.4-3.25-2.71-3.12-1.47.08-2.07-.76-2-2.19.07-1.75,1.37-1.57,2.5-1.58C78,156.15,80.67,156.15,83.33,156.15Z" transform="translate(0 0.01)"/><path class="cls-1" d="M30.38,172.15H15.89c-1.29,0-2.79.18-2.73-1.9s1.51-1.87,2.83-1.88h7.49c2.24,0,4.74.66,4.66-3.23-.09-4.06-2.87-2.74-4.92-2.91-1.65-.14-3.32,0-5,0-1.18,0-2.39,0-2.39-1.7,0-1.5.8-2.07,2.18-2.07h5c2.61,0,5.63.65,5.2-3.73-.13-1.3,1.09-1.43,2.14-1.46s2,.47,1.87,1.71c-.39,3.59,2,3.18,4.39,3.6,2.72.48,7.67-2.43,7.72,2,0,3.37-4.89,1.17-7.55,1.62-2.22.38-4.82-.52-4.55,3.35.14,2.15.87,3,3,2.92,2.83-.08,5.66-.06,8.49,0,1.55,0,3.69-.51,3.6,2.13-.09,2.42-2.13,1.6-3.43,1.63C39.37,172.25,34.87,172.15,30.38,172.15Z" transform="translate(0 0.01)"/><path class="cls-1" d="M30.62,177.15h1c11.69,0,13,1.69,11.05,13.66-.33,2-1.27,2.37-3,2.35-3.65,0-7.31-.22-10.94.06-2.68.21-6.32-1.83-7.51,3.07-.28,1.16-3.23,1.29-3.3-1.32-.17-5.31-.05-10.61-.05-15.92,0-2,1.42-1.89,2.76-1.89Zm-.41,12h3c2.66-.06,5.44.93,5.56-3.81.13-5-2.76-4.21-5.68-4.19-2.32,0-4.65.18-6.94,0-3.19-.31-4.24.8-4.28,4.1,0,3.5,1.4,4.28,4.41,4A36.84,36.84,0,0,1,30.21,189.15Z" transform="translate(0 0.01)"/><path class="cls-1" d="M117.62,24.37c-1.61-7-3.38-10-12.33-20.6,8.84-7.34,16-3.76,17.42,8.85a58.38,58.38,0,0,1-1.11,20.7c-2.38-2.35-1.62-7-4.1-9.14Z" transform="translate(0 0.01)"/><path class="cls-1" d="M115.45,26c-.86,2.12.66,3.62,1.06,5.34.69,2.82-1.36,1.15-2,1.72l.14.22c-.8-4.36-4.23-6.19-6.77-8.77-5.94-6-12.67-11-19.57-15.95,5.58-3.53,11.07-3,15.57,1.39a46.28,46.28,0,0,1,8.41,11.52c.86,1.69,1,4.23,3.32,4.69Z" transform="translate(0 0.01)"/><path class="cls-1" d="M123.55,38.63c-.57-.85-2.22,1.9-2-.49C122.28,27.45,136,11.7,145.41,10.5c1.29-.17,2.69-.42,3.9.71-1.39,2.82-5.09,2.69-5.94,6.07l.19-.2a56.21,56.21,0,0,0-20.17,21.73Z" transform="translate(0 0.01)"/><path class="cls-1" d="M65,201.86c-1.74-.59-3.51-.68-2.79-3.27,1.64-5.92,3-11.92,4.54-17.88.23-.92.28-2.12,1.8-1.73,1.14.28,2.68.57,2.36,2-1.44,6.66-3.07,13.28-4.66,19.91C66.15,201.61,65.64,202,65,201.86Z" transform="translate(0 0.01)"/><path class="cls-1" d="M63.1,161.52c2.55,2.06,5.2,4,7.6,6.24,1,.89-.36,1.73-.94,2.43s-1.23,1.16-2.08.43c-2.25-1.93-4.75-3.65-6.62-5.9C59.82,163.24,61.48,162.25,63.1,161.52Z" transform="translate(0 0.01)"/><path class="cls-1" d="M72.43,153.39a3.43,3.43,0,0,1-2.23,2.36c-.67.25-7.13-5.66-7.23-6.52A2.2,2.2,0,0,1,64.56,147C65.64,146.48,72.39,152,72.43,153.39Z" transform="translate(0 0.01)"/><path class="cls-1" d="M81.59,145.07a14.33,14.33,0,0,1,4.63,7c.46,1.37-1.51,2.19-2.21,1.88-2.72-1.19-3.49-4.11-4.62-6.51C78.76,146.07,80.86,146.15,81.59,145.07Z" transform="translate(0 0.01)"/><path class="cls-1" d="M133.87,182.07h-.14l-3.33-7.79v7.19q-.06,1.36,1.53,1.5a.39.39,0,0,1,.46.25.39.39,0,0,1-.46.22h-3.39c-.25,0-.38-.07-.38-.22s.09-.28.3-.25a1.56,1.56,0,0,0,1-.32,1.29,1.29,0,0,0,.48-1.05v-6.89c0-.63-.41-1-1.23-.93q-.48.1-.6-.24c.07-.16.23-.23.47-.19h3.06l2.87,6.45,3.09-6.45h3.09a.39.39,0,0,1,.46.19.36.36,0,0,1-.46.27,1.91,1.91,0,0,0-1,.27,1.08,1.08,0,0,0-.45.91v6.34a1.6,1.6,0,0,0,1.64,1.64.28.28,0,0,1,.3.25c-.07.17-.22.24-.46.22h-4.54c-.28,0-.43-.07-.44-.22s.11-.26.33-.25a1.54,1.54,0,0,0,1.32-.46,1.87,1.87,0,0,0,.29-1.18V174l-2.89,6.24a1.17,1.17,0,0,0,.62.16c.09,0,.09.08,0,.14A5.87,5.87,0,0,0,133.87,182.07Z" transform="translate(0 0.01)"/><path class="cls-1" d="M147.71,183a.66.66,0,0,0,.55-.91l-.82-2.33H144l-.43,1.2a3.44,3.44,0,0,0-.36,1.18.91.91,0,0,0,1,.82c.3,0,.5,0,.58.25a.39.39,0,0,1-.47.22H140.9a.19.19,0,0,1-.17-.23A.23.23,0,0,1,141,183a1.65,1.65,0,0,0,1.64-1.07l2.65-7.3a5.09,5.09,0,0,0-.63-.43V174a4,4,0,0,0,1-.49l.66-.6h.14l3.36,9.07a1.9,1.9,0,0,0,1.78,1.12c.23,0,.36.05.41.31h-5.47c-.17-.11-.17-.2,0-.31A3.8,3.8,0,0,0,147.71,183Zm-.38-3.65-1.61-4.57-1.64,4.57Z" transform="translate(0 0.01)"/><path class="cls-1" d="M157.43,176.49a8,8,0,0,0,1.48-1.8c.17-.35.16-.58,0-.71a1.63,1.63,0,0,0-.83-.17c-.29.05-.46-.05-.52-.27s.21-.23.43-.19h4.21c.15,0,.24,0,.28.19s-.25.33-.6.35a4.35,4.35,0,0,0-2.22,1.07c-.61.57-1.3,1.23-2.08,2l3.94,5.57a1.06,1.06,0,0,0,.58.4,2.6,2.6,0,0,0,.68.1c.28-.06.46,0,.55.19a.39.39,0,0,1-.47.22H158c-.24,0-.34-.1-.32-.22s.16-.2.42-.22a4.42,4.42,0,0,0,.91-.07c.28-.05.44-.17.46-.34a.75.75,0,0,0-.16-.36l-2.9-4.26-1.5,1.25v2.68c-.06.72.36,1.07,1.25,1.07l.54,0a.27.27,0,0,1,.31.27.39.39,0,0,1-.44.22h-4.73c-.28,0-.43-.05-.46-.22s.25-.29.63-.25a1.61,1.61,0,0,0,.9-.25,1,1,0,0,0,.46-.82v-6.42c.08-1.15-.43-1.7-1.53-1.67-.28.05-.43-.05-.46-.27s.21-.23.46-.19h4.57c.34,0,.54,0,.6.19a.26.26,0,0,1-.22.24,1.15,1.15,0,0,1-.35,0,1.42,1.42,0,0,0-1.22.48,1.84,1.84,0,0,0-.31,1.19v3.25a6,6,0,0,0,1.25-1.17,3.57,3.57,0,0,0,.69-1.78H157C157.17,176,157.31,176.27,157.43,176.49Z" transform="translate(0 0.01)"/><path class="cls-1" d="M171.74,175.86c0,.22-.12.27-.33.14a4.2,4.2,0,0,0-1.84-1.64,5.59,5.59,0,0,0-2.37-.49,1.16,1.16,0,0,0-1.37,1v3h1.92a1.42,1.42,0,0,0,1.31-.63,2.79,2.79,0,0,0,.33-1.36q.17-.28.33,0c.07,1.41.11,2.88.11,4.43q-.14.45-.36,0a3.37,3.37,0,0,0-.47-1.39,1.43,1.43,0,0,0-1.25-.66h-1.92v3.33a1.17,1.17,0,0,0,.66,1.13,3.24,3.24,0,0,0,1.42.24,3.93,3.93,0,0,0,2.47-.83,6.13,6.13,0,0,0,1.58-1.9c.21-.15.31-.08.33.22q-.85,2.07-1.83,4.18-.21.24-.33,0a1,1,0,0,0-.41-.92,1.67,1.67,0,0,0-1-.28h-6.18c-.25,0-.37-.09-.35-.25s.07-.24.19-.24l.43,0c.91.06,1.39-.3,1.45-1.09v-6.81a1,1,0,0,0-.68-1,3.35,3.35,0,0,0-1.29-.2c-.08,0-.12-.1-.12-.23s0-.22.12-.24h6.54a1.34,1.34,0,0,0,1.23-.77c.06-.1.11-.1.16,0C170.78,173.71,171.28,174.79,171.74,175.86Z" transform="translate(0 0.01)"/><path class="cls-1" d="M180.3,179.14,177.59,175a4.44,4.44,0,0,0-.8-.82,1.92,1.92,0,0,0-1.19-.38c-.3,0-.45-.05-.47-.19s.24-.32.52-.27h4.46a.42.42,0,0,1,.49.19.28.28,0,0,1-.26.24,1.27,1.27,0,0,1-.37,0,1.62,1.62,0,0,0-.7.14c-.23.11-.25.35,0,.74l2.3,3.6L183.8,175c.28-.48.25-.8-.09-1a2.12,2.12,0,0,0-1-.23c-.3,0-.44-.08-.44-.24s.2-.23.44-.19h3.56a.38.38,0,0,1,.46.19c0,.2-.18.28-.41.24-.73-.08-1.45.39-2.16,1.43l-2.38,3.52v2.71c0,1,.41,1.5,1.31,1.53a2.31,2.31,0,0,1,.39,0c.18,0,.27.11.3.23a.42.42,0,0,1-.47.2H178.6c-.31,0-.47-.05-.49-.2s.09-.2.25-.23a2.45,2.45,0,0,1,.46,0,1.59,1.59,0,0,0,1-.31,1.46,1.46,0,0,0,.44-1.19Z" transform="translate(0 0.01)"/><path class="cls-1" d="M187.5,182.16a5.27,5.27,0,0,1-1.38-3.67,5.57,5.57,0,0,1,1.3-3.7,5,5,0,0,1,3.84-1.61,5.18,5.18,0,0,1,3.79,1.43,5.34,5.34,0,0,1,1.41,3.85,5.22,5.22,0,0,1-1.39,3.77,5.29,5.29,0,0,1-3.89,1.42A5,5,0,0,1,187.5,182.16Zm6.48-.51a7.19,7.19,0,0,0,.65-3.19,7.67,7.67,0,0,0-.59-3.23,3,3,0,0,0-5.39,0,7.6,7.6,0,0,0-.64,3.24,7.15,7.15,0,0,0,.62,3.2,2.86,2.86,0,0,0,2.74,1.61A2.78,2.78,0,0,0,194,181.65Z" transform="translate(0 0.01)"/><path class="cls-1" d="M202.21,173.37c.15,0,.22.08.22.18s-.09.16-.25.18h-.93c-.9,0-1.34.75-1.34,2.35v4.84c.06,1.56.93,2.35,2.6,2.35,2.13,0,3.2-.79,3.23-2.51v-5.09a1.94,1.94,0,0,0-.56-1.57,2.14,2.14,0,0,0-1.36-.37.21.21,0,0,1-.2-.19c0-.11,0-.16.09-.17H208c.13,0,.2.09.19.2s-.08.17-.22.19c-1.25,0-1.84.63-1.78,1.91v5.39a2.27,2.27,0,0,1-1.11,2,5,5,0,0,1-2.61.63,6.52,6.52,0,0,1-2.66-.51,2.15,2.15,0,0,1-1.41-2V175.4A1.64,1.64,0,0,0,198,174a2.34,2.34,0,0,0-1.47-.3c-.12,0-.18-.07-.18-.18s.06-.16.18-.18Z" transform="translate(0 0.01)"/><path class="cls-1" d="M216.16,183.46q-1.46-2.55-2.87-5h-1.8v3.28c-.07.75.39,1.15,1.36,1.21a2,2,0,0,1,.47,0q.27,0,.3.21a.42.42,0,0,1-.47.22h-4.86c-.28,0-.44-.06-.47-.22s.35-.28.77-.24a1.73,1.73,0,0,0,1-.22,1.12,1.12,0,0,0,.37-1v-6.58a1.53,1.53,0,0,0-.32-1.19,2.14,2.14,0,0,0-1.51-.37v-.28h6.4a4.24,4.24,0,0,1,2.15.54,2.33,2.33,0,0,1,.18,3.81,4.18,4.18,0,0,1-1.86.68l2.29,3.56a2.12,2.12,0,0,0,2.14,1.15c.13,0,.2.07.21.18a.14.14,0,0,1-.13.17Zm-1.5-5.74v.06a2,2,0,0,0,1.36-2,1.91,1.91,0,0,0-.78-1.69,3.33,3.33,0,0,0-1.9-.47,2.93,2.93,0,0,0-1.23.24,1,1,0,0,0-.62,1v3.25H213a.48.48,0,0,0,.22,0,.11.11,0,0,0,.1-.06,13.86,13.86,0,0,0,1.34-1.12c.11-.05.15-.05.14,0A2.66,2.66,0,0,0,214.66,177.72Z" transform="translate(0 0.01)"/><path class="cls-1" d="M129.72,199a5.27,5.27,0,0,1-1.37-3.67,5.56,5.56,0,0,1,1.29-3.7,5,5,0,0,1,3.85-1.61,5.18,5.18,0,0,1,3.78,1.43,5.3,5.3,0,0,1,1.41,3.85,5.18,5.18,0,0,1-1.39,3.77,5.28,5.28,0,0,1-3.88,1.42A5,5,0,0,1,129.72,199Zm6.48-.51a7.19,7.19,0,0,0,.65-3.19,7.52,7.52,0,0,0-.59-3.23,2.78,2.78,0,0,0-2.69-1.64,2.82,2.82,0,0,0-2.7,1.63,7.6,7.6,0,0,0-.64,3.24,7.16,7.16,0,0,0,.63,3.2,2.87,2.87,0,0,0,2.74,1.61A2.76,2.76,0,0,0,136.2,198.45Z" transform="translate(0 0.01)"/><path class="cls-1" d="M140.14,191.54c-.22-.58-.55-.89-1-.93-.22,0-.34-.07-.36-.25s.2-.25.44-.21h3.42a.38.38,0,0,1,.46.21.36.36,0,0,1-.46.25c-.27,0-.46.17-.57.52a2.69,2.69,0,0,0,.13,1.56l1.61,5.25,1.51-5.5-.33-1.06a1.19,1.19,0,0,0-1-.77c-.27,0-.43-.07-.46-.25s.21-.25.46-.21h3.7c.26,0,.41,0,.46.21a.38.38,0,0,1-.46.25,1.07,1.07,0,0,0-.83.3c-.18.2-.19.56,0,1.07l1.78,6,1.42-5.14a2.51,2.51,0,0,0,0-1.77.89.89,0,0,0-.81-.5.31.31,0,0,1-.33-.25.37.37,0,0,1,.46-.21h3c.26,0,.42,0,.49.21s-.18.29-.41.25a1.29,1.29,0,0,0-1.1.6,8.23,8.23,0,0,0-1.14,2.79l-1.26,4.59a.72.72,0,0,0,.79.69c.25.07.22.18-.08.33a3.28,3.28,0,0,0-1.59.87c-.14.15-.24.18-.3.11l-2.16-7.49-1.5,5.55a.74.74,0,0,0,.76.6c.23.11.21.22-.05.33a3.05,3.05,0,0,0-.85.29,2.31,2.31,0,0,0-.76.56c-.15.17-.26.21-.33.11Z" transform="translate(0 0.01)"/><path class="cls-1" d="M163.06,190.17c.12,0,.18.08.19.18a.15.15,0,0,1-.14.18,2.06,2.06,0,0,0-1.15.31,1.34,1.34,0,0,0-.57,1.19v6.4a.59.59,0,0,0,.44.57,2.06,2.06,0,0,0,.9.17c.06,0,.06.1,0,.19a2.76,2.76,0,0,0-1.06.52,1.7,1.7,0,0,0-.45.37.91.91,0,0,1-.48.31l-6.18-9.43v7a1.84,1.84,0,0,0,.36,1.11,1.41,1.41,0,0,0,1.17.59.46.46,0,0,1,.54.22.39.39,0,0,1-.46.22H152.7c-.3,0-.45-.07-.47-.22s.2-.26.47-.22a1.37,1.37,0,0,0,1.07-.55,1.86,1.86,0,0,0,.43-1.15v-6.53c0-.68-.4-1-1.18-.93a2,2,0,0,1-.42,0,.26.26,0,0,1-.23-.26.4.4,0,0,1,.46-.19h2.87a.43.43,0,0,1,.47.19.44.44,0,0,1-.14.28l5,7.71v-5.47a2.65,2.65,0,0,0-.55-1.66,1.76,1.76,0,0,0-1.37-.69.18.18,0,0,1-.17-.18.15.15,0,0,1,.12-.18Z" transform="translate(0 0.01)"/><path class="cls-1" d="M175.75,199.72a4.75,4.75,0,0,1-2.66.82,5.59,5.59,0,0,1-4.1-1.7,5.76,5.76,0,0,1-1.56-3.94,5,5,0,0,1,4.9-4.81,10.21,10.21,0,0,1,2.16.3.86.86,0,0,0,.79-.76c0-.06.1-.06.17,0l1.42,3.36a.38.38,0,0,1-.33.19,5.41,5.41,0,0,0-1.59-1.93,4,4,0,0,0-2.35-.8,2.76,2.76,0,0,0-2.5,1.32,6.35,6.35,0,0,0-.75,3.38,6.07,6.07,0,0,0,.86,3.46,3.41,3.41,0,0,0,3,1.41,4.1,4.1,0,0,0,2.25-.66,3.69,3.69,0,0,0,1.44-1.75h.33A3.4,3.4,0,0,1,175.75,199.72Z" transform="translate(0 0.01)"/><path class="cls-1" d="M177.39,200c.06-.22.21-.3.46-.25a2.16,2.16,0,0,0,1-.28,1,1,0,0,0,.48-.92v-6.46c0-1-.38-1.49-1.21-1.53q-.5.06-.6-.24c.06-.18.22-.24.47-.19h4.54a.31.31,0,0,1,.43.19.25.25,0,0,1-.21.24.92.92,0,0,1-.31,0,2.21,2.21,0,0,0-1.1.23,1,1,0,0,0-.45,1v2.71H186V192c0-.95-.47-1.41-1.34-1.37-.35,0-.55-.05-.6-.27s.19-.24.43-.19h4.54c.24-.05.4,0,.47.19a.27.27,0,0,1-.27.23,3.29,3.29,0,0,1-.42,0,1.14,1.14,0,0,0-1.28,1.2v6.32a1.47,1.47,0,0,0,1.56,1.64c.23-.05.37,0,.41.25s-.22.24-.47.22h-4.7c-.25,0-.4-.07-.44-.22s.22-.32.5-.25a2.26,2.26,0,0,0,1.08-.25,1,1,0,0,0,.53-1v-3.64h-5.11v3.64a.78.78,0,0,0,.41.93,2.38,2.38,0,0,0,1.14.24l.32,0a.23.23,0,0,1,.2.24c-.06.17-.21.24-.43.22h-4.71C177.57,200.26,177.42,200.19,177.39,200Z" transform="translate(0 0.01)"/><path class="cls-1" d="M191.47,199a5.27,5.27,0,0,1-1.38-3.67,5.56,5.56,0,0,1,1.29-3.7,5,5,0,0,1,3.85-1.61,5.2,5.2,0,0,1,3.79,1.43,5.3,5.3,0,0,1,1.4,3.85A5.18,5.18,0,0,1,199,199a5.28,5.28,0,0,1-3.88,1.42A4.93,4.93,0,0,1,191.47,199Zm6.48-.51a7.18,7.18,0,0,0,.64-3.19A7.52,7.52,0,0,0,198,192a2.77,2.77,0,0,0-2.69-1.64,2.82,2.82,0,0,0-2.7,1.63,7.59,7.59,0,0,0-.63,3.24,7.15,7.15,0,0,0,.62,3.2,2.87,2.87,0,0,0,2.74,1.61A2.78,2.78,0,0,0,198,198.45Z" transform="translate(0 0.01)"/><path class="cls-1" d="M200.9,200c.09-.21.32-.29.68-.25a1.45,1.45,0,0,0,1.11-.35,1.23,1.23,0,0,0,.26-.85V192a1.64,1.64,0,0,0-.24-1,1.15,1.15,0,0,0-1-.41c-.36,0-.57-.05-.66-.3.07-.15.24-.21.5-.16h4.64c.28-.06.46,0,.55.19s-.11.21-.29.24a2.33,2.33,0,0,1-.53,0c-.8,0-1.19.5-1.18,1.37v6.59a1.25,1.25,0,0,0,.25.84,1.39,1.39,0,0,0,1.09.36l.41,0c.18,0,.28.1.31.22a.41.41,0,0,1-.47.22h-4.95C201.08,200.24,200.93,200.17,200.9,200Z" transform="translate(0 0.01)"/><path class="cls-1" d="M215.56,199.72a4.72,4.72,0,0,1-2.65.82,5.61,5.61,0,0,1-4.11-1.7,5.71,5.71,0,0,1-1.55-3.94,5,5,0,0,1,4.89-4.81,10.21,10.21,0,0,1,2.16.3.86.86,0,0,0,.79-.76c0-.06.1-.06.17,0l1.42,3.36a.38.38,0,0,1-.33.19,5.41,5.41,0,0,0-1.59-1.93,4,4,0,0,0-2.34-.8,2.76,2.76,0,0,0-2.51,1.32,6.44,6.44,0,0,0-.75,3.38,6,6,0,0,0,.87,3.46,3.38,3.38,0,0,0,3,1.41,4.13,4.13,0,0,0,2.26-.66,3.73,3.73,0,0,0,1.43-1.75H217A3.4,3.4,0,0,1,215.56,199.72Z" transform="translate(0 0.01)"/><path class="cls-1" d="M226.72,192.66c0,.22-.13.27-.33.14a4.31,4.31,0,0,0-1.84-1.64,5.66,5.66,0,0,0-2.37-.49c-.81,0-1.27.32-1.37,1v3h1.91a1.4,1.4,0,0,0,1.31-.63,2.79,2.79,0,0,0,.33-1.36q.16-.28.33,0c.08,1.41.12,2.88.11,4.43-.09.3-.21.3-.35,0a3.25,3.25,0,0,0-.48-1.39,1.42,1.42,0,0,0-1.25-.66h-1.91v3.33a1.14,1.14,0,0,0,.66,1.13,3.19,3.19,0,0,0,1.42.24,4,4,0,0,0,2.47-.83,6.1,6.1,0,0,0,1.57-1.9q.31-.22.33.21c-.57,1.39-1.18,2.78-1.83,4.19q-.21.24-.33,0a1,1,0,0,0-.41-.92,1.66,1.66,0,0,0-.95-.28h-6.18c-.26,0-.38-.09-.36-.25s.07-.24.2-.24l.43,0c.91.06,1.39-.31,1.45-1.09v-6.81a1,1,0,0,0-.68-1,3.35,3.35,0,0,0-1.29-.2c-.08,0-.12-.1-.12-.23s0-.22.12-.24h6.53a1.35,1.35,0,0,0,1.24-.77c0-.1.1-.1.16,0C225.76,190.51,226.25,191.59,226.72,192.66Z" transform="translate(0 0.01)"/><text y="0.01"/></svg>